<svg xmlns="http://www.w3.org/2000/svg" width="1431.56" height="443.53"><path d="m119.25 272.7 38.59-232.81h153.13l-6.57 39.53H198.93l-10.78 65.16h95.16l-6.4 38.75h-95.16L166.9 272.7zm240.93 2.97q-20 0-34.53-10.47-14.37-10.47-20.47-30.47-6.09-20.15-1.25-49.22 4.85-29.84 17.82-49.68 13.12-20 30.93-30t37.2-10q14.68 0 23.74 5t13.9 12.34q4.85 7.19 6.88 14.22h1.57L440.8 98h46.72l-28.9 174.7h-46.1l4.53-27.98h-2.19q-4.53 7.19-11.87 14.38-7.35 7.03-17.97 11.87-10.63 4.69-24.85 4.69M380.95 238q18.13 0 30.16-14.37 12.19-14.53 16.1-38.13 3.9-23.9-3.6-37.96-7.34-14.22-25.31-14.22-18.6 0-30.63 14.68-11.87 14.54-15.62 37.5-3.9 22.97 3.28 37.82Q362.68 238 380.96 238m117.82 34.7L527.68 98H573l-4.85 30.47h1.88q7.34-16.1 20-24.37 12.65-8.44 27.34-8.44 7.97 0 15 1.56l-7.03 41.88q-3.28-1.1-9.06-1.72-5.78-.63-10.78-.63-16.25 0-28.6 10.16-12.18 10.16-14.84 26.4l-16.4 99.38zM751.12 98l-5.78 35.78h-32.66l-14.53 87.82q-2.65 16.25 13.28 16.25 2.66 0 7.5-.63 5-.78 7.66-1.4l.78 35.15q-7.97 2.19-15.94 3.13-7.8 1.1-15 1.1-26.4 0-38.12-12.82t-7.81-36.72l15.3-91.87h-24.05L647.53 98h24.22l6.87-41.56h46.88L718.62 98zm67.34 243.75q-33.9 0-52.34-12.96-18.44-12.82-20.94-31.41l40.94-8.13q1.88 7.04 9.22 12.66 7.34 5.78 23.6 5.78 18.74 0 31.24-9.06t15.63-26.25l5.31-30.63-4.22.32q-6.72 10.78-18.44 19.53-11.71 8.6-31.87 8.6-26.25 0-43.6-16.26-17.34-16.4-17.34-49.37 0-19.85 5.63-39.22 5.78-19.38 16.56-35 10.94-15.78 26.72-25.16 15.78-9.37 35.94-9.37 15.46 0 25 5.46 9.68 5.32 14.84 12.97t7.19 14.53l2.18-.3L894.87 98h46.25l-29.06 174.7q-4.06 23.74-17.03 38.9-12.97 15.31-32.66 22.65-19.69 7.5-43.9 7.5m13.59-107.18q12.66 0 22.03-6.1 9.53-6.1 15.63-15.93 6.25-10 9.21-21.88 3.13-11.87 3.13-23.44 0-15.78-7.03-24.84t-21.25-9.06q-12.19 0-21.72 6.25-9.37 6.25-15.78 16.4-6.4 10.16-9.69 22.19-3.12 12.03-3.12 23.75 0 15.47 7.03 24.06 7.18 8.6 21.56 8.6m120 38.12L980.96 98h45.32l-4.85 30.47h1.88q7.34-16.1 20-24.37 12.66-8.44 27.34-8.44 7.97 0 15 1.56l-7.03 41.88q-3.28-1.1-9.06-1.72t-10.78-.63q-16.25 0-28.6 10.16-12.18 10.16-14.84 26.4l-16.4 99.38zm185.94 2.97q-20 0-34.53-10.47-14.38-10.47-20.47-30.47-6.1-20.15-1.25-49.22 4.84-29.84 17.81-49.68 13.13-20 30.94-30t37.18-10q14.7 0 23.75 5 9.07 5 13.91 12.34 4.84 7.19 6.88 14.22h1.56l4.84-29.38h46.72l-28.9 174.7h-46.1l4.53-27.98h-2.19q-4.53 7.19-11.87 14.38-7.34 7.03-17.97 11.87-10.62 4.69-24.84 4.69m20.78-37.66q18.12 0 30.15-14.37 12.2-14.53 16.1-38.13 3.9-23.9-3.6-37.96-7.34-14.22-25.3-14.22-18.6 0-30.63 14.68-11.88 14.54-15.63 37.5-3.9 22.97 3.28 37.82 7.35 14.68 25.63 14.68m117.65 34.7L1305.5 98h43.43l-3.59 31.72q10.16-18.6 24.38-26.4 14.21-7.97 28.75-7.97 17.5 0 27.34 10t12.97 29.06q10.47-20.62 26.87-29.84 16.41-9.22 34.07-9.22 16.56 0 28.43 7.34 12.03 7.35 17.35 21.1 5.31 13.59 2.18 32.65l-19.22 116.25h-46.87l18.44-110.47q2.5-14.84-3.75-21.25t-16.88-6.4q-14.53 0-24.53 9.37-10 9.22-12.19 22.81l-17.65 105.94h-45.31l18.59-111.72q2.19-12.97-3.6-19.68-5.78-6.72-16.71-6.72-13.28 0-24.07 9.22-10.78 9.06-13.43 24.84l-17.2 104.07z" aria-label="Fartgram" transform="translate(-119.25 -39.89)"/><path d="M674.1 642.76q-7.43 0-12.2-2.5-4.68-2.5-7.34-6.17-2.65-3.67-3.75-7.26h-1.25l-2.42 14.45H624.1l19.3-116.4h23.44l-7.42 43.74h.93q2.2-3.67 5.55-7.26 3.44-3.67 8.44-6.1 5.08-2.42 12.19-2.42 12.96 0 21.48 8.75 8.6 8.67 8.6 25.78 0 9.38-2.66 19.14-2.58 9.7-7.9 17.9-5.23 8.2-13.2 13.28t-18.75 5.07m-6.64-18.82q6.49 0 11.25-3.44t7.9-8.83 4.6-11.48q1.49-6.18 1.49-11.49 0-7.81-3.44-12.42-3.44-4.69-10.62-4.69-6.25 0-11.02 3.2-4.69 3.2-7.9 8.36t-4.83 11.33q-1.57 6.17-1.57 12.11 0 8.05 3.52 12.74 3.6 4.6 10.62 4.6m48.99 48.29 8.28-17.66 2.65.7q6.96 1.8 11.88-.39t6.64-8.67l1.48-4.69-18.36-87.57h24.22l7.27 45.31q.78 5.7 1.1 11.4.38 5.63.62 11.41 2.42-5.86 4.84-11.48 2.5-5.7 5.31-11.33l22.82-45.31h25.23l-53.28 97.65q-5.7 10.55-14.22 16.72-8.51 6.25-21.72 6.25-4.45 0-8.43-.7-3.99-.63-6.33-1.64m204.6-118.28-2.88 17.58h-18.91l-12.11 73.2q-2.58 15.55-11.8 23.67-9.14 8.2-23.75 8.2-3.28 0-6.56-.23t-5.86-.94l4.92-18.28q1.41.31 3.52.55 2.1.31 3.44.31 10.47 0 12.42-12.03l12.26-74.45h-16.25l2.9-17.58h16.32l.24-1.56q2.65-15.94 12.18-24.38 9.54-8.52 24.77-8.52 3.83 0 7.03.4 3.2.39 6.56 1.24l-5.93 17.74q-3.44-.63-8.75-.63-10.08 0-11.96 11.49l-.7 4.22zm29.07 88.83q-10 0-17.27-5.24-7.18-5.23-10.23-15.23-3.05-10.08-.63-24.61 2.43-14.92 8.91-24.85 6.56-10 15.47-15t18.6-5q7.34 0 11.87 2.5t6.95 6.18q2.42 3.59 3.44 7.1h.78l2.42-14.68h23.36l-14.45 87.34h-23.05l2.27-13.98h-1.1q-2.26 3.6-5.93 7.18-3.68 3.52-8.99 5.94-5.31 2.35-12.42 2.35m10.39-18.83q9.06 0 15.08-7.19 6.1-7.27 8.04-19.06 1.96-11.96-1.8-18.99-3.66-7.1-12.65-7.1-9.3 0-15.31 7.34-5.94 7.26-7.81 18.75-1.96 11.48 1.64 18.9 3.67 7.35 12.81 7.35m58.9 17.34 14.46-87.34h22.66l-2.43 15.23h.94q3.67-8.04 10-12.19 6.33-4.21 13.67-4.21 3.99 0 7.5.78l-3.51 20.93q-1.64-.54-4.53-.86t-5.4-.3q-8.12 0-14.3 5.07-6.09 5.08-7.41 13.2l-8.2 49.7zm126.18-87.34-2.9 17.89h-16.32l-7.27 43.9q-1.32 8.13 6.64 8.13 1.33 0 3.75-.31 2.5-.4 3.83-.7l.4 17.57q-4 1.1-7.98 1.56-3.9.55-7.5.55-13.2 0-19.06-6.4t-3.9-18.36l7.65-45.94h-12.03l2.9-17.9h12.1l3.44-20.77h23.44l-3.44 20.78zm39.37 89.06q-17.42 0-27.26-10-9.85-10.08-9.85-26.72 0-10.08 3.2-19.6 3.21-9.62 9.46-17.2 6.25-7.65 15.47-12.1 9.22-4.54 21.33-4.54 15.78 0 25.39 7.9t9.84 21.32l-22.26 3.75q-.4-6.8-3.44-10.62-3.05-3.9-9.77-3.9-6.64 0-11.48 3.35t-7.97 8.75-4.69 11.64q-1.48 6.25-1.48 11.95 0 7.9 3.36 12.74 3.43 4.84 10.86 4.84 6.95 0 12.57-4.14 5.63-4.22 8.2-11.33l21.18 4.38q-4.77 13.75-15.94 21.64-11.1 7.89-26.72 7.89m94.14 0q-17.73 0-27.5-9.92-9.68-10-9.68-26.57 0-10.54 3.28-20.15 3.36-9.61 9.76-17.19t15.55-11.95q9.22-4.38 20.94-4.38 17.65 0 27.34 10 9.77 9.92 9.77 26.49 0 10.54-3.36 20.23-3.28 9.61-9.69 17.19-6.4 7.5-15.62 11.87-9.14 4.38-20.79 4.38m.79-18.44q6.56 0 11.25-3.51 4.76-3.52 7.8-8.99 3.13-5.55 4.62-11.72 1.48-6.25 1.48-11.64 0-7.89-3.6-12.65t-10.85-4.77q-6.56 0-11.33 3.52-4.69 3.43-7.81 8.9-3.05 5.47-4.53 11.72-1.49 6.17-1.49 11.64 0 7.81 3.6 12.66t10.86 4.84m57.34 16.72 14.45-87.34h22.66l-2.42 15.23h.93q3.68-8.05 10-12.19 6.33-4.22 13.68-4.22 3.98 0 7.5.79l-3.52 20.93q-1.64-.54-4.53-.86t-5.39-.3q-8.13 0-14.3 5.07-6.1 5.08-7.42 13.2l-8.2 49.69zm101.64 1.88q-17.5 0-27.58-9.38-10-9.45-10-26.25 0-11.02 3.6-20.94 3.67-9.92 10.39-17.58 6.72-7.73 15.93-12.1 9.22-4.46 20.32-4.46 9.22 0 16.48 3.13 7.35 3.04 11.56 8.75t4.22 13.6q0 9.83-6.87 15.46-6.88 5.62-20.24 8.2t-32.73 3.05q-.08 1.72-.08 3.28 0 7.5 3.6 12.58 3.59 5 13.12 5 6.64 0 11.8-2.74 5.15-2.8 7.34-7.73l21.02 2.81q-4.3 11.4-15.47 18.36-11.1 6.96-26.41 6.96m-12.5-52.66q14.38-.24 22.03-1.4 7.74-1.18 10.63-3.52 2.97-2.42 2.97-6.49 0-4.14-3.44-6.56t-9.45-2.42q-6.49 0-11.02 2.89-4.45 2.89-7.34 7.58-2.82 4.68-4.38 9.92" aria-label="by fartcore" transform="translate(-52.22 -233.06)"/></svg>
