<?xml version="1.0" encoding="UTF-8" standalone="no"?>
<!-- Created with Inkscape (http://www.inkscape.org/) -->

<svg
   width="1431.5625"
   height="443.52997"
   viewBox="0 0 1431.5625 443.52997"
   version="1.1"
   id="svg1"
   inkscape:export-filename="fartgram-dark.svg"
   inkscape:export-xdpi="96"
   inkscape:export-ydpi="96"
   sodipodi:docname="fartgram-dark.svg"
   xmlns:inkscape="http://www.inkscape.org/namespaces/inkscape"
   xmlns:sodipodi="http://sodipodi.sourceforge.net/DTD/sodipodi-0.dtd"
   xmlns="http://www.w3.org/2000/svg"
   xmlns:svg="http://www.w3.org/2000/svg">
  <sodipodi:namedview
     id="namedview1"
     pagecolor="#505050"
     bordercolor="#ffffff"
     borderopacity="1"
     inkscape:showpageshadow="0"
     inkscape:pageopacity="0"
     inkscape:pagecheckerboard="1"
     inkscape:deskcolor="#505050"
     inkscape:document-units="px">
    <inkscape:page
       x="0"
       y="0"
       width="1431.5625"
       height="443.52997"
       id="page2"
       margin="0"
       bleed="0" />
  </sodipodi:namedview>
  <defs
     id="defs1" />
  <g
     inkscape:label="Logo"
     inkscape:groupmode="layer"
     id="layer1"
     transform="translate(-52.218746,-233.0625)">
    <path
       d="M 119.24609,272.70076 157.83984,39.888259 h 153.125 l -6.5625,39.53125 H 198.93359 l -10.78125,65.156251 h 95.15625 l -6.40625,38.75 h -95.15625 l -14.84375,89.375 z m 240.9375,2.96875 q -20,0 -34.53125,-10.46875 -14.375,-10.46875 -20.46875,-30.46875 -6.09375,-20.15625 -1.25,-49.21875 4.84375,-29.84375 17.8125,-49.6875 13.125,-20 30.9375,-30 17.8125,-10.000001 37.1875,-10.000001 14.6875,0 23.75,5.000001 9.0625,5 13.90625,12.34375 4.84375,7.1875 6.875,14.21875 h 1.5625 l 4.84375,-29.375001 h 46.71875 L 458.62109,272.70076 h -46.09375 l 4.53125,-27.96875 h -2.1875 q -4.53125,7.1875 -11.875,14.375 -7.34375,7.03125 -17.96875,11.875 -10.625,4.6875 -24.84375,4.6875 z m 20.78125,-37.65625 q 18.125,0 30.15625,-14.375 12.1875,-14.53125 16.09375,-38.125 3.90625,-23.90625 -3.59375,-37.96875 -7.34375,-14.21875 -25.3125,-14.21875 -18.59375,0 -30.625,14.6875 -11.875,14.53125 -15.625,37.5 -3.90625,22.96875 3.28125,37.8125 7.34375,14.6875 25.625,14.6875 z m 117.8125,34.6875 28.90625,-174.687501 h 45.3125 l -4.84375,30.468751 h 1.875 q 7.34375,-16.09375 20,-24.375 12.65625,-8.437501 27.34375,-8.437501 7.96875,0 15,1.5625 l -7.03125,41.875001 q -3.28125,-1.09375 -9.0625,-1.71875 -5.78125,-0.625 -10.78125,-0.625 -16.25,0 -28.59375,10.15625 -12.1875,10.15625 -14.84375,26.40625 l -16.40625,99.375 z M 751.12109,98.013259 745.33984,133.79451 h -32.65625 l -14.53125,87.8125 q -2.65625,16.25 13.28125,16.25 2.65625,0 7.5,-0.625 5,-0.78125 7.65625,-1.40625 l 0.78125,35.15625 q -7.96875,2.1875 -15.9375,3.125 -7.8125,1.09375 -15,1.09375 -26.40625,0 -38.125,-12.8125 -11.71875,-12.8125 -7.8125,-36.71875 l 15.3125,-91.875 h -24.0625 l 5.78125,-35.781251 h 24.21875 l 6.875,-41.5625 h 46.875 l -6.875,41.5625 z m 67.34375,243.750001 q -33.90625,0 -52.34375,-12.96875 -18.4375,-12.8125 -20.9375,-31.40625 l 40.9375,-8.125 q 1.875,7.03125 9.21875,12.65625 7.34375,5.78125 23.59375,5.78125 18.75,0 31.25,-9.0625 12.5,-9.0625 15.625,-26.25 l 5.3125,-30.625 -4.21875,0.3125 q -6.71875,10.78125 -18.4375,19.53125 -11.71875,8.59375 -31.875,8.59375 -26.25,0 -43.59375,-16.25 -17.34375,-16.40625 -17.34375,-49.375 0,-19.84375 5.625,-39.21875 5.78125,-19.375 16.5625,-35 10.9375,-15.78125 26.71875,-25.15625 15.78125,-9.375001 35.9375,-9.375001 15.46875,0 25,5.468751 9.6875,5.3125 14.84375,12.96875 5.15625,7.65625 7.1875,14.53125 l 2.1875,-0.3125 5.15625,-30.468751 h 46.25 l -29.0625,174.687501 q -4.0625,23.75 -17.03125,38.90625 -12.96875,15.3125 -32.65625,22.65625 -19.6875,7.5 -43.90625,7.5 z m 13.59375,-107.1875 q 12.65625,0 22.03125,-6.09375 9.53125,-6.09375 15.625,-15.9375 6.25,-10 9.21875,-21.875 3.125,-11.875 3.125,-23.4375 0,-15.78125 -7.03125,-24.84375 -7.03125,-9.0625 -21.25,-9.0625 -12.1875,0 -21.71875,6.25 -9.375,6.25 -15.78125,16.40625 -6.40625,10.15625 -9.6875,22.1875 -3.125,12.03125 -3.125,23.75 0,15.46875 7.03125,24.0625 7.1875,8.59375 21.5625,8.59375 z m 120,38.125 28.90625,-174.687501 h 45.31246 l -4.8437,30.468751 h 1.875 q 7.3437,-16.09375 20,-24.375 12.6562,-8.437501 27.3437,-8.437501 7.9688,0 15,1.5625 l -7.0312,41.875001 q -3.2813,-1.09375 -9.0625,-1.71875 -5.7813,-0.625 -10.7813,-0.625 -16.25,0 -28.5937,10.15625 -12.1875,10.15625 -14.8438,26.40625 l -16.40621,99.375 z m 185.93751,2.96875 q -20,0 -34.5313,-10.46875 -14.375,-10.46875 -20.4687,-30.46875 -6.0938,-20.15625 -1.25,-49.21875 4.8437,-29.84375 17.8125,-49.6875 13.125,-20 30.9375,-30 17.8125,-10.000001 37.1875,-10.000001 14.6875,0 23.75,5.000001 9.0625,5 13.9062,12.34375 4.8438,7.1875 6.875,14.21875 h 1.5625 l 4.8438,-29.375001 h 46.7187 l -28.9062,174.687501 h -46.0938 l 4.5313,-27.96875 h -2.1875 q -4.5313,7.1875 -11.875,14.375 -7.3438,7.03125 -17.9688,11.875 -10.625,4.6875 -24.8437,4.6875 z m 20.7812,-37.65625 q 18.125,0 30.1563,-14.375 12.1875,-14.53125 16.0937,-38.125 3.9063,-23.90625 -3.5937,-37.96875 -7.3438,-14.21875 -25.3125,-14.21875 -18.5938,0 -30.625,14.6875 -11.875,14.53125 -15.625,37.5 -3.9063,22.96875 3.2812,37.8125 7.3438,14.6875 25.625,14.6875 z m 117.6563,34.6875 29.0625,-174.687501 h 43.4375 l -3.5938,31.718751 q 10.1563,-18.59375 24.375,-26.40625 14.2188,-7.968751 28.75,-7.968751 17.5,0 27.3438,10.000001 9.8437,10 12.9687,29.0625 10.4688,-20.625 26.875,-29.84375 16.4063,-9.218751 34.0625,-9.218751 16.5625,0 28.4375,7.343751 12.0313,7.34375 17.3438,21.09375 5.3125,13.59375 2.1875,32.65625 l -19.2188,116.25 h -46.875 l 18.4375,-110.46875 q 2.5,-14.84375 -3.75,-21.25 -6.25,-6.40625 -16.875,-6.40625 -14.5312,0 -24.5312,9.375 -10,9.21875 -12.1875,22.8125 l -17.6563,105.9375 h -45.3125 l 18.5938,-111.71875 q 2.1875,-12.96875 -3.5938,-19.6875 -5.7812,-6.71875 -16.7187,-6.71875 -13.2813,0 -24.0625,9.21875 -10.7813,9.0625 -13.4375,24.84375 l -17.1875,104.0625 z"
       id="text1"
       style="font-style:italic;font-weight:bold;font-size:320px;line-height:0;font-family:Inter;-inkscape-font-specification:'Inter, Bold Italic';white-space:pre;fill:#ffffff;stroke-width:30.236;stroke-linecap:square;paint-order:markers fill stroke"
       transform="translate(-67.027344,193.17424)"
       aria-label="Fartgram"
       inkscape:label="Fartgram" />
    <path
       d="m 674.09375,642.76434 q -7.42188,0 -12.1875,-2.5 -4.6875,-2.5 -7.34375,-6.17187 -2.65625,-3.67188 -3.75,-7.26563 h -1.25 l -2.42188,14.45313 h -23.04687 l 19.29687,-116.40625 h 23.4375 l -7.42187,43.75 h 0.9375 q 2.1875,-3.67188 5.54687,-7.26563 3.4375,-3.67187 8.4375,-6.09375 5.07813,-2.42187 12.1875,-2.42187 12.96875,0 21.48438,8.75 8.59375,8.67187 8.59375,25.78125 0,9.375 -2.65625,19.14062 -2.57813,9.6875 -7.89063,17.89063 -5.23437,8.20312 -13.20312,13.28125 -7.96875,5.07812 -18.75,5.07812 z m -6.64063,-18.82812 q 6.48438,0 11.25,-3.4375 4.76563,-3.4375 7.89063,-8.82813 3.125,-5.39062 4.60937,-11.48437 1.48438,-6.17188 1.48438,-11.48438 0,-7.8125 -3.4375,-12.42187 -3.4375,-4.6875 -10.625,-4.6875 -6.25,0 -11.01563,3.20312 -4.6875,3.20313 -7.89062,8.35938 -3.20313,5.15625 -4.84375,11.32812 -1.5625,6.17188 -1.5625,12.10938 0,8.04687 3.51562,12.73437 3.59375,4.60938 10.625,4.60938 z m 48.98438,48.28125 8.28125,-17.65625 2.65625,0.70312 q 6.95312,1.79688 11.875,-0.39062 4.92187,-2.1875 6.64062,-8.67188 l 1.48438,-4.6875 -18.35938,-87.57812 h 24.21875 l 7.26563,45.3125 q 0.78125,5.70312 1.09375,11.40625 0.39062,5.625 0.625,11.40625 2.42187,-5.85938 4.84375,-11.48438 2.5,-5.70312 5.3125,-11.32812 l 22.8125,-45.3125 h 25.23437 l -53.28125,97.65625 q -5.70312,10.54687 -14.21875,16.71875 -8.51562,6.25 -21.71875,6.25 -4.45312,0 -8.4375,-0.70313 -3.98437,-0.625 -6.32812,-1.64062 z m 204.60937,-118.28125 -2.89062,17.57812 H 899.25 l -12.10938,73.20313 q -2.57812,15.54687 -11.79687,23.67187 -9.14063,8.20313 -23.75,8.20313 -3.28125,0 -6.5625,-0.23438 -3.28125,-0.23437 -5.85938,-0.9375 l 4.92188,-18.28125 q 1.40625,0.3125 3.51562,0.54688 2.10938,0.3125 3.4375,0.3125 10.46875,0 12.42188,-12.03125 l 12.26562,-74.45313 h -16.25 l 2.89063,-17.57812 h 16.32812 l 0.23438,-1.5625 q 2.65625,-15.9375 12.1875,-24.375 9.53125,-8.51563 24.76562,-8.51563 3.82813,0 7.03125,0.39063 3.20313,0.39062 6.5625,1.25 l -5.9375,17.73437 q -3.4375,-0.625 -8.75,-0.625 -10.07812,0 -11.95312,11.48438 l -0.70313,4.21875 z m 29.0625,88.82812 q -10,0 -17.26562,-5.23437 -7.1875,-5.23438 -10.23438,-15.23438 -3.04687,-10.07812 -0.625,-24.60937 2.42188,-14.92188 8.90625,-24.84375 6.5625,-10 15.46875,-15 8.90625,-5 18.59375,-5 7.34375,0 11.875,2.5 4.53125,2.5 6.95313,6.17187 2.42187,3.59375 3.4375,7.10938 H 988 l 2.42187,-14.6875 h 23.35933 l -14.45308,87.34375 h -23.04687 l 2.26562,-13.98438 h -1.09375 q -2.26562,3.59375 -5.9375,7.1875 -3.67187,3.51563 -8.98437,5.9375 -5.3125,2.34375 -12.42188,2.34375 z M 960.5,623.93622 q 9.0625,0 15.07812,-7.1875 6.09375,-7.26563 8.04688,-19.0625 1.95312,-11.95313 -1.79688,-18.98438 -3.67187,-7.10937 -12.65625,-7.10937 -9.29687,0 -15.3125,7.34375 -5.9375,7.26562 -7.8125,18.75 -1.95312,11.48437 1.64063,18.90625 3.67187,7.34375 12.8125,7.34375 z m 58.9062,17.34375 14.4532,-87.34375 h 22.6562 l -2.4218,15.23437 h 0.9375 q 3.6718,-8.04687 10,-12.1875 6.3281,-4.21875 13.6718,-4.21875 3.9844,0 7.5,0.78125 l -3.5156,20.9375 q -1.6406,-0.54687 -4.5312,-0.85937 -2.8907,-0.3125 -5.3907,-0.3125 -8.125,0 -14.2968,5.07812 -6.0938,5.07813 -7.4219,13.20313 l -8.2031,49.6875 z m 126.1719,-87.34375 -2.8906,17.89062 h -16.3281 l -7.2656,43.90625 q -1.3282,8.125 6.6406,8.125 1.3281,0 3.75,-0.3125 2.5,-0.39062 3.8281,-0.70312 l 0.3906,17.57812 q -3.9843,1.09375 -7.9687,1.5625 -3.9063,0.54688 -7.5,0.54688 -13.2031,0 -19.0625,-6.40625 -5.8594,-6.40625 -3.9063,-18.35938 l 7.6563,-45.9375 h -12.0313 l 2.8907,-17.89062 h 12.1093 l 3.4375,-20.78125 h 23.4375 l -3.4375,20.78125 z m 39.375,89.0625 q -17.4218,0 -27.2656,-10 -9.8437,-10.07813 -9.8437,-26.71875 0,-10.07813 3.2031,-19.60938 3.2031,-9.60937 9.4531,-17.1875 6.25,-7.65625 15.4688,-12.10937 9.2187,-4.53125 21.3281,-4.53125 15.7812,0 25.3906,7.89062 9.6094,7.89063 9.8438,21.32813 l -22.2657,3.75 q -0.3906,-6.79688 -3.4375,-10.625 -3.0468,-3.90625 -9.7656,-3.90625 -6.6406,0 -11.4844,3.35937 -4.8437,3.35938 -7.9687,8.75 -3.125,5.39063 -4.6875,11.64063 -1.4844,6.25 -1.4844,11.95312 0,7.89063 3.3594,12.73438 3.4375,4.84375 10.8594,4.84375 6.9531,0 12.5781,-4.14063 5.625,-4.21875 8.2031,-11.32812 l 21.1719,4.375 q -4.7656,13.75 -15.9375,21.64062 -11.0938,7.89063 -26.7188,7.89063 z m 94.1407,0 q -17.7344,0 -27.5,-9.92188 -9.6875,-10 -9.6875,-26.5625 0,-10.54687 3.2812,-20.15625 3.3594,-9.60937 9.7656,-17.1875 6.4063,-7.57812 15.5469,-11.95312 9.2188,-4.375 20.9375,-4.375 17.6563,0 27.3438,10 9.7656,9.92187 9.7656,26.48437 0,10.54688 -3.3594,20.23438 -3.2812,9.60937 -9.6875,17.1875 -6.4062,7.5 -15.625,11.875 -9.1406,4.375 -20.7812,4.375 z m 0.7812,-18.4375 q 6.5625,0 11.25,-3.51563 4.7656,-3.51562 7.8125,-8.98437 3.125,-5.54688 4.6094,-11.71875 1.4844,-6.25 1.4844,-11.64063 0,-7.89062 -3.5938,-12.65625 -3.5937,-4.76562 -10.8594,-4.76562 -6.5625,0 -11.3281,3.51562 -4.6875,3.4375 -7.8125,8.90625 -3.0469,5.46875 -4.5312,11.71875 -1.4844,6.17188 -1.4844,11.64063 0,7.8125 3.5937,12.65625 3.5938,4.84375 10.8594,4.84375 z m 57.3438,16.71875 14.4531,-87.34375 h 22.6562 l -2.4218,15.23437 h 0.9375 q 3.6718,-8.04687 10,-12.1875 6.3281,-4.21875 13.6718,-4.21875 3.9844,0 7.5,0.78125 l -3.5156,20.9375 q -1.6406,-0.54687 -4.5312,-0.85937 -2.8907,-0.3125 -5.3907,-0.3125 -8.125,0 -14.2968,5.07812 -6.0938,5.07813 -7.4219,13.20313 l -8.2031,49.6875 z m 101.6406,1.875 q -17.5,0 -27.5781,-9.375 -10,-9.45313 -10,-26.25 0,-11.01563 3.5937,-20.9375 3.6719,-9.92188 10.3906,-17.57813 6.7188,-7.73437 15.9375,-12.10937 9.2188,-4.45313 20.3125,-4.45313 9.2188,0 16.4844,3.125 7.3438,3.04688 11.5625,8.75 4.2188,5.70313 4.2188,13.59375 0,9.84375 -6.875,15.46875 -6.875,5.625 -20.2344,8.20313 -13.3594,2.57812 -32.7344,3.04687 -0.078,1.71875 -0.078,3.28125 0,7.5 3.5937,12.57813 3.5938,5 13.125,5 6.6407,0 11.7969,-2.73438 5.1563,-2.8125 7.3438,-7.73437 l 21.0156,2.8125 q -4.2969,11.40625 -15.4688,18.35937 -11.0937,6.95313 -26.4062,6.95313 z m -12.5,-52.65625 q 14.375,-0.23438 22.0312,-1.40625 7.7344,-1.17188 10.625,-3.51563 2.9688,-2.42187 2.9688,-6.48437 0,-4.14063 -3.4375,-6.5625 -3.4375,-2.42188 -9.4531,-2.42188 -6.4844,0 -11.0157,2.89063 -4.4531,2.89062 -7.3437,7.57812 -2.8125,4.6875 -4.375,9.92188 z"
       id="text2"
       style="font-style:italic;font-weight:bold;font-size:160px;line-height:0;font-family:Inter;-inkscape-font-specification:'Inter, Bold Italic';fill:#ffffff;stroke-width:30.236;stroke-linecap:square;paint-order:markers fill stroke"
       aria-label="by fartcore"
       inkscape:label="byfartcore" />
  </g>
</svg>
